<svg xmlns="http://www.w3.org/2000/svg" width="512" height="512" viewBox="0 0 512 512"><title>Original symbolic placeholder: creature_swap</title><rect width="512" height="512" fill="#a9c8b7"/><path d="M 0 382 L 512 108 L 512 512 L 0 512 Z" fill="#648f80"/><circle cx="246" cy="238" r="171" fill="#a9c8b7" stroke="#294a44" stroke-opacity=".16" stroke-width="3"/><path d="M 82 80 L 125 80 M 82 80 L 82 123 M 430 432 L 387 432 M 430 432 L 430 389" fill="none" stroke="#294a44" stroke-width="5"/><g color="#294a44"><g transform="translate(246 242) rotate(0) scale(0.87)"><path d="M -120 -32 L 33 -32 L 33 -80 L 124 0 L 33 80 L 33 32 L -120 32 Z" fill="currentColor" stroke="none" stroke-width="8" stroke-linejoin="round" stroke-linecap="round"/></g><g transform="translate(330 338) rotate(0) scale(0.39)"><path d="M -97 -35 L -113 -108 L -35 -78 L 0 -96 L 35 -78 L 113 -108 L 97 -35 L 105 42 L 40 111 L -40 111 L -105 42 Z" fill="currentColor" stroke="none" stroke-width="8" stroke-linejoin="round" stroke-linecap="round"/><path d="M -64 -16 L -25 -6 M 64 -16 L 25 -6 M -23 48 L 0 69 L 23 48" fill="currentColor" stroke="#f8d8a0" stroke-width="10" stroke-linejoin="round" stroke-linecap="round"/></g></g></svg>
