<svg xmlns="http://www.w3.org/2000/svg" width="512" height="512" viewBox="0 0 512 512"><title>Original symbolic placeholder: gravekeepers_guard</title><rect width="512" height="512" fill="#b39ab1"/><path d="M 0 382 L 512 108 L 512 512 L 0 512 Z" fill="#725d7c"/><circle cx="246" cy="238" r="171" fill="#b39ab1" stroke="#302a40" stroke-opacity=".16" stroke-width="3"/><path d="M 82 80 L 125 80 M 82 80 L 82 123 M 430 432 L 387 432 M 430 432 L 430 389" fill="none" stroke="#302a40" stroke-width="5"/><g color="#302a40"><g transform="translate(246 242) rotate(0) scale(0.87)"><path d="M -86 -100 L 0 -120 L 86 -100 L 75 32 Q 52 92 0 126 Q -52 92 -75 32 Z" fill="currentColor" stroke="none" stroke-width="8" stroke-linejoin="round" stroke-linecap="round"/><path d="M -53 -72 L 0 -85 L 53 -72 L 45 20 Q 32 62 0 86 Q -32 62 -45 20 Z" fill="#f8d8a0" stroke="none" stroke-width="8" stroke-linejoin="round" stroke-linecap="round"/></g><g transform="translate(330 338) rotate(0) scale(0.39)"><path d="M -23 -125 L 23 -125 L 23 -40 L 100 -40 L 100 5 L 23 5 L 23 125 L -23 125 L -23 5 L -100 5 L -100 -40 L -23 -40 Z" fill="currentColor" stroke="none" stroke-width="8" stroke-linejoin="round" stroke-linecap="round"/></g></g></svg>
