<svg xmlns="http://www.w3.org/2000/svg" width="512" height="512" viewBox="0 0 512 512"><title>Original symbolic placeholder: the_warrior_returning_alive</title><rect width="512" height="512" fill="#a9c8b7"/><path d="M 0 382 L 512 108 L 512 512 L 0 512 Z" fill="#648f80"/><circle cx="246" cy="238" r="171" fill="#a9c8b7" stroke="#294a44" stroke-opacity=".16" stroke-width="3"/><path d="M 82 80 L 125 80 M 82 80 L 82 123 M 430 432 L 387 432 M 430 432 L 430 389" fill="none" stroke="#294a44" stroke-width="5"/><g color="#294a44"><g transform="translate(246 242) rotate(0) scale(0.87)"><path d="M -76 86 L -86 -20 Q -76 -101 0 -116 Q 76 -101 86 -20 L 76 86 L 23 104 L 20 7 L -20 7 L -23 104 Z" fill="currentColor" stroke="none" stroke-width="8" stroke-linejoin="round" stroke-linecap="round"/><path d="M -55 -25 L 55 -25" fill="currentColor" stroke="#f8d8a0" stroke-width="12" stroke-linejoin="round" stroke-linecap="round"/></g><g transform="translate(330 338) rotate(0) scale(0.39)"><path d="M -23 -125 L 23 -125 L 23 -40 L 100 -40 L 100 5 L 23 5 L 23 125 L -23 125 L -23 5 L -100 5 L -100 -40 L -23 -40 Z" fill="currentColor" stroke="none" stroke-width="8" stroke-linejoin="round" stroke-linecap="round"/></g></g></svg>
