<svg xmlns="http://www.w3.org/2000/svg" xmlns:inkscape="http://www.inkscape.org/namespaces/inkscape" width="590" height="860" viewBox="0 0 590 860"><g id="frame-base" inkscape:groupmode="layer" inkscape:label="frame-base"><path fill="#33948d" fill-rule="evenodd" d="M18 0 H572 Q590 0 590 18 V842 Q590 860 572 860 H18 Q0 860 0 842 V18 Q0 0 18 0 Z M35 40 V600 H555 V40 Z"/></g><g id="cloud-texture" inkscape:groupmode="layer" inkscape:label="cloud-texture"><defs><filter id="clouds" x="0" y="0" width="100%" height="100%"><feTurbulence type="fractalNoise" baseFrequency=".018 .032" numOctaves="3" seed="19"/><feColorMatrix type="matrix" values="0 0 0 0 1  0 0 0 0 1  0 0 0 0 1  1.3 0 0 0 -.35"/><feGaussianBlur stdDeviation="1.4"/></filter><clipPath id="band-clip"><rect x="28" y="608" width="534" height="224" rx="4"/></clipPath><clipPath id="frame-clip"><path clip-rule="evenodd" d="M0 0 H590 V860 H0 Z M35 40 V600 H555 V40 Z"/></clipPath></defs><g clip-path="url(#frame-clip)" opacity=".48"><rect width="590" height="860" filter="url(#clouds)"/></g></g><g id="border" inkscape:groupmode="layer" inkscape:label="border"><rect x="6" y="6" width="578" height="848" rx="14" fill="none" stroke="#293344" stroke-width="5"/><rect x="17" y="17" width="556" height="826" rx="7" fill="none" stroke="#cce9de" stroke-width="3"/><rect x="32" y="37" width="526" height="566" fill="none" stroke="#293344" stroke-width="6"/></g><g id="information-band" inkscape:groupmode="layer" inkscape:label="information-band"><rect x="28" y="608" width="534" height="224" rx="4" fill="#33948d" stroke="#293344" stroke-width="3"/><g clip-path="url(#band-clip)"><rect x="28" y="608" width="534" height="224" fill="#cce9de" opacity=".40"/><rect x="28" y="608" width="534" height="224" filter="url(#clouds)" opacity=".85"/></g></g><g id="type-signature" inkscape:groupmode="layer" inkscape:label="type-signature"><path d="M-12 5 L0 -6 L12 5" transform="translate(295 24)" fill="none" stroke="#293344" stroke-width="3" stroke-linejoin="round"/></g></svg>