<svg xmlns="http://www.w3.org/2000/svg" width="64" height="64" viewBox="0 0 64 64"><rect x="3" y="6" width="58" height="55" rx="10" fill="#293344" stroke="none" stroke-width="0"/><rect x="3" y="3" width="58" height="54" rx="10" fill="#F6F8FA" stroke="#293344" stroke-width="2"/><g fill="#293344" transform="translate(23.026,40) scale(0.028, -0.028)"><path transform="translate(0,0)" d="M188 0V122H354Q399.5 122 425.5 148.75Q451.5 175.5 451.5 215Q451.5 241.5 439.75 262.75Q428 284 406.25 296.0Q384.5 308 354 308H188V427H341Q379.5 427 403.5 446.5Q427.5 466 427.5 505.5Q427.5 545 403.5 564.5Q379.5 584 341 584H188V706H370.5Q438.5 706 486.25 680.75Q534 655.5 559.0 613.75Q584 572 584 521Q584 455.5 541.75 410.5Q499.5 365.5 418 349L421.5 401.5Q511 384.5 559.5 332.5Q608 280.5 608 204.5Q608 146.5 579.25 100.25Q550.5 54 497.0 27.0Q443.5 0 369 0ZM67.5 0V706H223V0Z"/></g></svg>
